<mxfile host="Electron" modified="2024-02-28T10:29:07.676Z" agent="Mozilla/5.0 (Windows NT 10.0; Win64; x64) AppleWebKit/537.36 (KHTML, like Gecko) draw.io/23.1.5 Chrome/120.0.6099.109 Electron/28.1.0 Safari/537.36" etag="jH3KH6rDgygMP2xlEyg3" version="23.1.5" type="device">
  <diagram name="Page-1" id="sqGrGM3prYD-wbCHXvAt">
    <mxGraphModel dx="1434" dy="836" grid="1" gridSize="10" guides="1" tooltips="1" connect="1" arrows="1" fold="1" page="1" pageScale="1" pageWidth="1169" pageHeight="827" math="0" shadow="0">
      <root>
        <mxCell id="0" />
        <mxCell id="1" parent="0" />
        <mxCell id="Wki4ykxRImbt2XhLLRFu-13" value="" style="rounded=0;whiteSpace=wrap;html=1;" vertex="1" parent="1">
          <mxGeometry x="195" y="210" width="780" height="350" as="geometry" />
        </mxCell>
        <mxCell id="Wki4ykxRImbt2XhLLRFu-2" value="" style="rounded=0;whiteSpace=wrap;html=1;fillColor=#d5e8d4;strokeColor=#82b366;" vertex="1" parent="1">
          <mxGeometry x="380" y="270" width="450" height="230" as="geometry" />
        </mxCell>
        <mxCell id="Wki4ykxRImbt2XhLLRFu-3" value="Webserver" style="rounded=0;whiteSpace=wrap;html=1;fillColor=#dae8fc;strokeColor=#6c8ebf;" vertex="1" parent="1">
          <mxGeometry x="440" y="384" width="120" height="60" as="geometry" />
        </mxCell>
        <mxCell id="Wki4ykxRImbt2XhLLRFu-4" value="API-Server" style="rounded=0;whiteSpace=wrap;html=1;fillColor=#dae8fc;strokeColor=#6c8ebf;" vertex="1" parent="1">
          <mxGeometry x="670" y="384" width="120" height="60" as="geometry" />
        </mxCell>
        <mxCell id="Wki4ykxRImbt2XhLLRFu-5" value="User" style="shape=umlActor;verticalLabelPosition=bottom;verticalAlign=top;html=1;outlineConnect=0;" vertex="1" parent="1">
          <mxGeometry x="260" y="374" width="40" height="80" as="geometry" />
        </mxCell>
        <mxCell id="Wki4ykxRImbt2XhLLRFu-6" value="MatFunc Webapp" style="text;strokeColor=none;align=center;fillColor=none;html=1;verticalAlign=middle;whiteSpace=wrap;rounded=0;fontSize=17;" vertex="1" parent="1">
          <mxGeometry x="530" y="280" width="170" height="30" as="geometry" />
        </mxCell>
        <mxCell id="Wki4ykxRImbt2XhLLRFu-7" value="" style="endArrow=classic;html=1;rounded=0;entryX=0;entryY=0.5;entryDx=0;entryDy=0;exitX=0.5;exitY=0.5;exitDx=0;exitDy=0;exitPerimeter=0;" edge="1" parent="1" source="Wki4ykxRImbt2XhLLRFu-5" target="Wki4ykxRImbt2XhLLRFu-3">
          <mxGeometry width="50" height="50" relative="1" as="geometry">
            <mxPoint x="300" y="340" as="sourcePoint" />
            <mxPoint x="350" y="290" as="targetPoint" />
          </mxGeometry>
        </mxCell>
        <mxCell id="Wki4ykxRImbt2XhLLRFu-8" value="" style="endArrow=classic;startArrow=classic;html=1;rounded=0;entryX=0;entryY=0.5;entryDx=0;entryDy=0;exitX=1;exitY=0.5;exitDx=0;exitDy=0;" edge="1" parent="1" source="Wki4ykxRImbt2XhLLRFu-3" target="Wki4ykxRImbt2XhLLRFu-4">
          <mxGeometry width="50" height="50" relative="1" as="geometry">
            <mxPoint x="580" y="500" as="sourcePoint" />
            <mxPoint x="630" y="450" as="targetPoint" />
          </mxGeometry>
        </mxCell>
        <mxCell id="Wki4ykxRImbt2XhLLRFu-9" value="Browser" style="text;strokeColor=none;align=center;fillColor=none;html=1;verticalAlign=middle;whiteSpace=wrap;rounded=0;" vertex="1" parent="1">
          <mxGeometry x="320" y="414" width="60" height="30" as="geometry" />
        </mxCell>
        <mxCell id="Wki4ykxRImbt2XhLLRFu-10" value="Routing" style="text;strokeColor=none;align=center;fillColor=none;html=1;verticalAlign=middle;whiteSpace=wrap;rounded=0;" vertex="1" parent="1">
          <mxGeometry x="585" y="390" width="60" height="30" as="geometry" />
        </mxCell>
        <mxCell id="Wki4ykxRImbt2XhLLRFu-14" value="Bausteinsicht Level 1" style="text;strokeColor=none;align=center;fillColor=none;html=1;verticalAlign=middle;whiteSpace=wrap;rounded=0;fontSize=19;" vertex="1" parent="1">
          <mxGeometry x="195" y="210" width="210" height="30" as="geometry" />
        </mxCell>
      </root>
    </mxGraphModel>
  </diagram>
</mxfile>
